<svg xmlns="http://www.w3.org/2000/svg" version="1.1" xmlns:xlink="http://www.w3.org/1999/xlink" xmlns:svgjs="http://svgjs.dev/svgjs" width="1000" height="900" viewBox="0 0 1000 900"><rect width="1000" height="900" fill="#0093fb"></rect><g transform="matrix(0.5191111111111111,0,0,0.5191111111111111,240.4444444444445,83)"><svg viewBox="0 0 320 360" data-background-color="#0093fb" preserveAspectRatio="xMidYMid meet" height="1125" width="1000" xmlns="http://www.w3.org/2000/svg" xmlns:xlink="http://www.w3.org/1999/xlink"><g id="tight-bounds" transform="matrix(1,0,0,1,0,0)"><svg viewBox="0 0 320 360" height="360" width="320"><g><svg></svg></g><g><svg viewBox="0 0 320 360" height="360" width="320"><g><path xmlns="http://www.w3.org/2000/svg" d="M20.961 227.22l3.726 4.658-1.863-6.056c-0.466-2.795-3.726 0.466-1.863 1.398M25.153 224.425c1.397 2.329 2.795 4.658 2.795 6.987 0 3.261 2.795 4.658 5.123 5.589-3.261-3.726-5.124-13.974-7.918-12.576M204.017 26.929c7.918 0 15.371-0.932 23.756 0.931 20.495 5.124 37.729 15.371 49.374 29.811l32.606 52.169c1.397 13.042 4.192 27.482 3.726 43.319 3.261 0 2.795-4.658 6.521-5.59-3.726 9.316-5.59 20.961-6.521 34.469-2.329-7.453 0-18.632 0.466-24.687-3.261 5.124-5.124 1.397-5.124-0.932 0.466-3.726-1.397-3.261-2.795-4.658-5.124-4.658-8.384-9.782-12.11-17.7 2.329-6.055 2.795-14.905-4.658-19.563-2.329-1.397-5.124-3.726-6.521-7.453-1.863-5.124-5.124-11.179-4.193-19.097 0.466-2.329-6.987 5.124-11.179 1.863-18.166-12.576-36.332-27.016-58.224-39.127-11.645 0-20.029-4.192-24.221-9.316-3.726-4.658-0.932-10.713 4.658-11.179 3.261 0 6.987-0.932 9.782 0.932 0.466-1.863 2.329-4.192 4.657-4.192M157.904 16.215l0.932 0.466c4.658 0.932 6.987 7.453 12.11 5.124 0 3.261 0.466 6.521-0.466 8.85-1.397 3.726-5.59 3.726-8.85 3.726-31.208-1.863-49.374 11.179-68.471 22.358-5.124 3.261-10.713 5.59-14.906 9.782-20.029 18.632-41.921 35.866-47.045 70.335l-4.192 38.195c-0.466 4.192-5.124 8.384-4.192 13.508l3.26 22.824c-3.261-3.261-5.124 0.932-4.192 2.795 0.466 1.397 2.329 6.055 5.124 1.863 3.726 6.987 7.453 20.495 12.576 26.55 15.837 18.632 36.332 35.4 53.101 52.169 4.192-0.932 7.453-0.932 8.384-3.727 1.397 2.795-1.397 5.59-3.726 6.056 7.453 4.658 15.837 8.85 27.016 9.781 14.44 0.932 27.948 3.261 40.524 6.522 6.521-1.863 13.042-2.795 20.029-3.261 2.329 0 3.726-3.726 6.521-4.658l0.466-4.658c2.795 4.192 2.329-1.397 0.466-4.192 3.261 2.795 4.192 5.124 5.589 6.987 0-1.397 3.726-6.521 3.727-0.466l0.931-6.055c1.397-0.932 1.863 5.124 3.261 0.931 1.397-4.192 4.192-0.932 6.987-2.329-0.932 1.863-0.466 5.59 2.794 3.261l3.727-3.261c2.329 5.59 6.055 3.261 7.918 2.329 20.495-13.042 40.99-28.413 60.553-43.784l-0.466 6.055 2.329-7.453c2.329 2.329 4.192 0.466 5.124-0.931 2.795-4.658 6.521-9.316 12.577-13.508-7.453 20.029-16.303 35.866-27.482 48.908l-4.658 5.59c0 3.261-0.932 7.453-4.658 7.918-1.863 0.466-5.59-0.932-8.384 1.863-1.397 1.863 3.261 5.59-0.466 2.795-3.261-2.329-6.521 0-10.248 0.932-2.795 0.932 1.863 3.726 2.795 5.589 0.932 1.863 1.863 3.726 1.398 6.056l-5.124-5.59c-6.055 3.261-9.782 9.316-14.906 13.974-2.329 1.863-1.397 5.124-1.397 7.918-3.261 0-6.987-0.932-8.85 0.932-1.397 1.863-0.932 4.658-0.932 7.453-4.658-0.466-5.124-7.453-9.315-6.056-4.192 0.932-8.85 1.397-12.577 3.727 2.795 5.59-4.658 2.329-3.726 3.26-6.987-4.192-13.042-7.453-20.495-4.658-15.837-5.124-35.4-2.795-49.84-0.931 0-2.329 0.466-4.658-0.466-5.124-0.932 2.329-3.726 1.397-3.26 1.397-8.85-6.055-17.7-9.782-27.016-14.905-8.384 0.932-16.303-3.261-18.632-5.59-6.521-6.055-13.974-2.795-20.029-4.192-13.042-3.261-17.7-16.769-19.098-26.084-0.932-4.658-4.658-6.521-6.055-6.056-6.055-19.563-15.371-37.263-22.824-55.429-1.863-4.658-1.397-9.316-1.397-14.44 2.329 0.932 4.658 0.466 4.192-2.794-2.329-15.371-7.918-27.016-13.974-38.195 3.261-15.837 3.726-34.469 11.179-48.443 6.521-12.576 18.632-19.098 27.016-29.811 2.795-3.726 2.795-8.85 5.59-12.11 9.316-9.316 18.632-19.098 28.879-27.482 4.658-3.726 10.247 0 17.234-1.397 2.329-8.384 11.645-15.837 20.495-13.508 3.726 0.932 11.179-8.85 13.508-9.782 3.726-1.397 1.863 3.726 1.863 6.987 8.85-6.987 20.961-10.713 32.14-14.906" fill="#ffffff" fill-rule="nonzero" stroke="none" stroke-width="1" stroke-linecap="butt" stroke-linejoin="miter" stroke-miterlimit="10" stroke-dasharray="" stroke-dashoffset="0" font-family="none" font-weight="none" font-size="none" text-anchor="none" style="mix-blend-mode: normal" data-fill-palette-color="tertiary"></path></g><g transform="matrix(1,0,0,1,64.00000000000001,136.90875688916105)"><svg viewBox="0 0 191.99999999999997 86.18248622167788" height="86.18248622167788" width="191.99999999999997"><g><svg viewBox="0 0 191.99999999999997 86.18248622167788" height="86.18248622167788" width="191.99999999999997"><g><svg viewBox="0 0 191.99999999999997 86.18248622167788" height="86.18248622167788" width="191.99999999999997"><g id="textblocktransform"><svg viewBox="0 0 191.99999999999997 86.18248622167788" height="86.18248622167788" width="191.99999999999997" id="textblock"><g><svg viewBox="0 0 191.99999999999997 86.18248622167788" height="86.18248622167788" width="191.99999999999997"><g transform="matrix(1,0,0,1,0,0)"><svg width="191.99999999999997" viewBox="3 -36.25 81.83999633789062 36.650001525878906" height="86.18248622167788" data-palette-color="#ffffff"><g class="undefined-text-0" data-fill-palette-color="primary" id="text-0"><path d="M18.05-12.7L18.05-24.9 23.75-24.9 23.75-12.05Q23.75-9.05 24.13-7.03 24.5-5 24.95-3.75L24.95-3.75Q25.5-2.25 26.15-1.4L26.15-1.4 21.7 0.4Q21.1-0.15 20.6-1L20.6-1Q20.2-1.7 19.78-2.73 19.35-3.75 19.2-5.15L19.2-5.15Q17.85-2.2 15.4-0.95 12.95 0.3 10.3 0.3L10.3 0.3Q6.35 0.3 4.67-2 3-4.3 3-8.3L3-8.3 3-24.9 8.7-24.9 8.7-8.4Q8.7-6.3 9.45-5.1 10.2-3.9 12-3.9L12-3.9Q13.1-3.9 14.18-4.53 15.25-5.15 16.13-6.3 17-7.45 17.53-9.08 18.05-10.7 18.05-12.7L18.05-12.7ZM53.2-1.4L48.75 0.4Q48.65 0.35 48.3-0.08 47.95-0.5 47.52-1.25 47.1-2 46.7-3.13 46.3-4.25 46.2-5.75L46.2-5.75Q45.35-2.75 43.47-1.23 41.6 0.3 38.4 0.3L38.4 0.3Q36.05 0.3 34.32-0.58 32.6-1.45 31.45-3.08 30.3-4.7 29.75-7 29.2-9.3 29.2-12.1L29.2-12.1Q29.2-14.95 30.07-17.38 30.95-19.8 32.52-21.55 34.1-23.3 36.3-24.3 38.5-25.3 41.15-25.3L41.15-25.3Q42.05-25.3 43.07-25.2 44.1-25.1 45.1-24.95L45.1-24.95 45.1-36.25 50.8-35.25 50.8-12.05Q50.8-9.05 51.15-7.08 51.5-5.1 51.95-3.88 52.4-2.65 52.77-2.1 53.15-1.55 53.2-1.4L53.2-1.4ZM39.35-3.75Q40.6-3.75 41.65-4.6 42.7-5.45 43.47-6.83 44.25-8.2 44.67-9.95 45.1-11.7 45.1-13.55L45.1-13.55 45.1-20.75Q44.6-20.9 43.6-21.1 42.6-21.3 41.8-21.3L41.8-21.3Q39.9-21.3 38.67-20.65 37.45-20 36.7-18.85 35.95-17.7 35.65-16.1 35.35-14.5 35.35-12.6L35.35-12.6Q35.35-10.85 35.45-9.25 35.55-7.65 35.97-6.43 36.4-5.2 37.2-4.48 38-3.75 39.35-3.75L39.35-3.75ZM62.75 0.2Q60.1 0.2 58.7-1.38 57.3-2.95 57.3-5.45L57.3-5.45 57.3-24.9 63-24.9 63-5.95Q63-4.8 63.35-4.4 63.7-4 64.4-4L64.4-4Q64.59-4 64.82-4 65.05-4 65.25-4.05L65.25-4.05Q65.45-4.05 65.7-4.1L65.7-4.1 66.3-0.5Q65.95-0.3 65.4-0.15L65.4-0.15Q64.95 0 64.27 0.1 63.6 0.2 62.75 0.2L62.75 0.2ZM60.25-36Q61.85-36 62.7-35.05 63.55-34.1 63.55-32.6L63.55-32.6Q63.55-31.1 62.67-30.1 61.8-29.1 60.1-29.1L60.1-29.1Q58.5-29.1 57.62-30.08 56.75-31.05 56.75-32.45L56.75-32.45Q56.75-34 57.62-35 58.5-36 60.25-36L60.25-36ZM67.54-20.85L67.54-24.9 72.04-24.9 73.04-30.75 77.74-31.8 77.74-24.9 83.89-24.9 83.19-20.85 77.74-20.85 77.74-6.05Q77.74-4.75 78.44-4.38 79.14-4 79.99-4L79.99-4Q80.69-4 81.39-4.1 82.09-4.2 82.64-4.35L82.64-4.35Q83.29-4.5 83.89-4.7L83.89-4.7 84.84-0.95 84.39-0.8Q83.94-0.6 83.07-0.38 82.19-0.15 81.02 0.03 79.84 0.2 78.44 0.2L78.44 0.2Q77.04 0.2 75.87-0.1 74.69-0.4 73.84-1.07 72.99-1.75 72.52-2.8 72.04-3.85 72.04-5.4L72.04-5.4 72.04-20.85 67.54-20.85Z" fill="#ffffff" data-fill-palette-color="primary"></path></g></svg></g></svg></g></svg></g></svg></g><g></g></svg></g></svg></g></svg></g><defs></defs></svg><rect width="320" height="360" fill="none" stroke="none" visibility="hidden"></rect></g></svg></g></svg>